<svg xmlns="http://www.w3.org/2000/svg" viewBox="0 0 400 400"><desc>Team Work Streamline Illustration: https://streamlinehq.com</desc><path fill="#ffc077" d="M321.52 148.54c2.8-4.874 2.05-11.632-6.188-7.904L306 116l-16.918-3.874L278.724 116s-5.264 7.55-5.264 10.622.728 9.26.728 9.26a18.6 18.6 0 0 0-2.084 7.13c.174 2.732 4.368 17.454 7.216 19.2s9.318.742 9.318.742l1.2 6.356-11.568 1.786s-.966 10.666 6.528 11.094 36.73-8.12 36.73-8.12l-8.864-4-1.174-16.09s7.238-.566 10.03-5.44m-46.17-12.218a3.47 3.47 0 0 1 .43-2.218s.536-.6 2.324-.098a7.6 7.6 0 0 1 3.296 2.654 16.8 16.8 0 0 1-4.66 1.6c-.598-.036-1.228-.596-1.39-1.938m6.76 16.878c-1.6-.4-3.386-3.764-3.386-3.764l5.654-.332 7.8.388c-4.424 4.21-8.468 4.108-10.068 3.708m9.89-14.22c-.544-.106-.886-.552-1.364-1.742s.834-2.846.834-2.846a15 15 0 0 0 1.826 0c1.016-.06 5.136 3.464 5.136 3.464A23.7 23.7 0 0 1 292 138.98"/><path fill="#69d6f9" d="M89.134 129.286S80 132.8 78.188 135.474s-5.81 3.422-2.876 9.704c0 0-3.616 4.078-1.174 8.32 0 0 20.054-13.2 24.638-13.86s27.286 12.27 37.08 19.014l9.94 4.102s6.95-7.088 7.082-15.074a54.5 54.5 0 0 0-1.6-14.14s-1.74.344-2.782.678a3.6 3.6 0 0 1-2.26-.218l-5.878 14s-8.6-9.834-16.296-14.25-15.696-16.106-34.928-4.464M174.918 170.71h-.562a7.166 7.166 0 0 0-7.144 7.734l.868 10.882a11.26 11.26 0 0 1 6.838-6.418Z"/><path fill="#69d6f9" d="M71.266 180.382s10.86-17.148 28.698-20.314 20.69 14.554 20.69 14.554l3.168 19.778 8.304 1.25-.47 7.64 5.444-2.8 3.968 6.844s2.308-5.118 4.03-5.58a23.9 23.9 0 0 0 8-4.718c2.73-2.438 11.654-8.148 14.974-7.712a12.69 12.69 0 0 1 8.454-7.074 38.1 38.1 0 0 0 12.728-6.4l8.2 20.732L194.49 199s1.562 5.726-1.8 5.872.246 9.786-7.852 10.908c0 0-1.472-.224-2.236 1.768s-9.838 14.126-12.75 15.708-22.146 18.57-35.272 20.448-42.98-34.286-42.98-34.286-18.514-10-20.972-20.62a33.44 33.44 0 0 1 .638-18.416M73.272 303.584l2.892 7.712s50.588 4.236 61.558 4.872 39.972-8.848 39.972-8.848a30.2 30.2 0 0 0 1.316-9.12s-40.582 3.916-55.328 4.248Z"/><path fill="#69d6f9" d="M172.84 230.944s3.046 35.446 3.576 38.492 4.762 18.6 4.758 20.728.254 5.61-2.164 8.036l-1.316 9.12 4.972 17.064s8.384.514 11.476-.494 1.712-3.242 1.712-3.242l-1.312-11.246a57.3 57.3 0 0 0 2.72-11.2 14.8 14.8 0 0 0-4.278-10.256 33.3 33.3 0 0 0 .782-16c-1.568-9.966-5.8-15.37-7.118-25.952a206 206 0 0 0-5.52-25.24ZM278.724 116s3.86-1.568 5.536-2.236a25.4 25.4 0 0 0 5.94 3.036c1.424.084 9.312-1.096 9.312-1.096a11.24 11.24 0 0 1 3.32 6.084c.916 4.148 5.362 4.646 6.146 4.94s.36 4.724.36 4.724l-.672 5.2a14.7 14.7 0 0 0 1.732 4.812l1.076 1.32s-2.318 3.486-3.262 3.446-4.866.906-5.308 2.026.33 1.562 2.626 1.514a9.78 9.78 0 0 0 5.944-3.15 64 64 0 0 0 3.854-6s4.854-.914 5.012-1 1.872 2.026 1.872 2.026a15.8 15.8 0 0 0 2.2-5.32c-.126-1.49-.178-5.736-.178-5.736l.914-5.256a10.76 10.76 0 0 0 5.126-.07 5.234 5.234 0 0 0 2.274-7.45 4.12 4.12 0 0 0 1.744-3.742 4.956 4.956 0 0 0-4.228-5.542c-2.568-.176-1.178-.116-1.178-.116a4.69 4.69 0 0 0-3.92-4.776c-4.06-.682-9.222.072-9.42 6.702 0 0 .08-1.948-3.772-.6a10.35 10.35 0 0 0-5-2.858c-2.226-.098-7.642-2.082-10.254-1.956a48.7 48.7 0 0 0-11.046 2.926c-2.048.924-6.75 8.148-6.75 8.148M311.82 155.444a45 45 0 0 0 4.936 2.296 13 13 0 0 0 2.344.43l.2-2.14a14 14 0 0 1-3.428-.908c-1.39-.644-2.28-1.142-2.28-1.142h-2.102Z"/><path fill="#ffc077" d="M164.496 97.76s-2.072-11.534-4.4-14.922c0 0-21.92-7-26.078-3.586s-7.518 8.08-7.478 13.13-.778 12.366-.778 12.366-5.416-11.892-8.564-7.912a17.1 17.1 0 0 0-3.358 11.296 35 35 0 0 0 1.77 3.49s4.39 3.876 6.868 3.83l-4.414 13.834S132.8 140.8 134.42 141.5s5.938 6.5 5.938 6.5l5.878-14a9.8 9.8 0 0 0 7.7-2.564c2.986-3.166 4.98-10.128 6.924-12.706a20.1 20.1 0 0 0 2.32-12.248c-.72-2.714 1.316-8.722 1.316-8.722m-25.65 4.44c2.2-1.256 9.114 0 9.114 0a15 15 0 0 1-.864 3.8 2.2 2.2 0 0 1-.56.122l-1.684-.636c-.96-.418-6.006-3.286-6.006-3.286m8.426 21.28c-1.736-.384-5.618-6.026-5.618-6.026l12.894 2.38s-5.548 4.032-7.276 3.646m13.7-15.348c-.464.8-1.568.424-1.568.424l-1.746-.684-2.03-.9-.908-2.928s1.784.046 3.014.07a16 16 0 0 1 3.51.816 12.8 12.8 0 0 1-.272 3.202M190.642 178.538l6.566 16.92 5.342 2.554 5.334.88h2.904l2.8 1.724 4.41.976 3.116-1.892v-2.906l2.576-1.496.786-2.682-3.69-11.184-2.362-3.618-5.648-.616z"/><path fill="#ffc077" d="m254.346 188.364-8.744 9.946-4.946 1.36-4.68-.066-2.476-.446-2.652 1.042-3.908.156-2.366-2.09.444-2.476-1.968-1.67-.258-2.406 4.856-8.97 2.568-2.72 4.91.338 15.222 5.468z"/><path fill="#ffc077" d="M246.124 197.716s32.058 41.306 43.538 45.296 25.836-6.754 25.836-6.754l-13.886-23.714-6.234 1.736-41.032-25.916ZM247.282 229.448s-2.854 31.728-3.856 33.832-5.632 11.09-6.414 15.082-3.7 18.178.476 47.478c0 0 8.854.618 10.6.434 0 0-3.114-19.382-.428-30.126s5.856-24.576 12.676-31.336l1.074-9.438-2.4-24.43Z"/><path fill="#0D319D" d="m295.878 215.78 5.734-3.236-2.724-4.65a.636.636 0 0 1 .154-.82l9.35-7.418 1.41-7.4a.638.638 0 1 1 1.252.238l-1.132 5.952 5.878-4.666a.64.64 0 1 1 .8 1l-16.324 12.95 17.09 29.18 22.842-17.352c3.33-4.988 8.498-16.158 8.474-25.276-.024-8.78-19.886-20.178-25.052-23a2.95 2.95 0 0 0-2.466-.172c-5.424 2.05-26.906 9.896-32.984 8-4.96-1.556-8.882-6.464-10.732-9.17a2.96 2.96 0 0 0-3.35-1.142c-4.948 1.574-16.66 5.34-17.8 6.086-1.44.948-5.528 9.546-5.528 9.546l-.422 1.4-.518.654s19.4 13.19 25.578 16.75 20.47 12.546 20.47 12.546"/><path fill="#0D319D" d="M317.556 238.358a.63.63 0 0 1-.386.13 1 1 0 0 1-.124-.012.64.64 0 0 1-.426-.304l-1.122-1.914-.018-.054c-3.904 1.822-17.766 7.912-25.134 6.158-8.03-1.912-39.4-39.414-43.726-44.53l-5.816 19.862a1.23 1.23 0 0 0 .632 1.446l3.39 1.69 2.822-10.134a.638.638 0 0 1 1.228.342l-3.13 11.24c0 .634.018 1.674.092 3.4.212 4.818 8.508 10.91 8.508 10.91s1.778.4 1.77 8.766 5.286 10.026 5.286 10.026 16.788.898 26 1.22 40.826-1.422 40.826-1.422a26.5 26.5 0 0 0 6.8-8.238c2.36-4.514 3.756-20.71 4.088-24.962Z"/><path fill="none" stroke="#0D319D" stroke-linecap="round" stroke-linejoin="round" stroke-width="1.276" d="M138.846 101.688a24.9 24.9 0 0 1 9.114.508"/><path fill="#0D319D" d="M145.188 101.96s-.972 2.37-.336 3.532l1.684.636a4.75 4.75 0 0 0 1.296-3.8Z"/><path fill="none" stroke="#0D319D" stroke-linecap="round" stroke-linejoin="round" stroke-width="1.276" d="M154.72 104.036a22 22 0 0 1 6.63.712"/><path fill="#0D319D" d="M158.534 104.618s-.97 2.368-.336 3.53l1.684.636a4.74 4.74 0 0 0 1.296-3.8ZM138.422 95.684a12.59 12.59 0 0 1 10.54-.212c.426.226 1.12.54.724 1.786s-.48 1.332-2.188 1.11a15.6 15.6 0 0 0-5.422-.638c-3.23.734-5.64-1.13-3.654-2.046"/><path fill="none" stroke="#0D319D" stroke-linecap="round" stroke-linejoin="round" stroke-width="1.276" d="m151.28 96.934-.74 1.656"/><path fill="#0D319D" d="M164.496 97.76a6.25 6.25 0 0 0-5.702-.48c-.46.142-1.2.326-1.038 1.622s.226 1.4 1.946 1.494 1.126-.84 2.896-.27a8 8 0 0 1 1.054.294c.674.302 1.548-2.206.844-2.66"/><path fill="none" stroke="#0D319D" stroke-linecap="round" stroke-linejoin="round" stroke-width="1.276" d="m156.248 98.292.422 1.764M154.688 100a8.06 8.06 0 0 0 .67 6.858s2.58 4.844 1.954 6.472-5.626 2.434-5.626 2.434M151.788 113.6a8.7 8.7 0 0 0-2.586.32M141.6 117.456s3.236 5.752 6.314 6.19 6.686-3.876 6.686-3.876-12.142-2-13.08-2.626a1.44 1.44 0 0 1-.716-1.492M115.82 98.6s-3.09 7.022-1.53 10.718a9.27 9.27 0 0 0 9.772 6.066"/><path fill="none" stroke="#0D319D" stroke-linecap="round" stroke-linejoin="round" stroke-width="1.276" d="M122.12 115.478a119 119 0 0 1-4.41 13.8M120.986 101.48c-3.744-.528-6.434 6.456.6 10.142M159.432 81.526s5.322 9.692 5.064 16.872a72 72 0 0 0-1.412 7.6c-.166 2.332 1.424 5.616-2.69 13.658-5.768 11.28-6.072 13.016-10.926 14.4S132.05 127.628 129.684 124"/><path fill="#0D319D" d="M115.95 100s1.67-3.744 3.964-2.98c2.092.694 4.256 5.2 5.152 8.162a1.14 1.14 0 0 0 1.092.816h2a1.136 1.136 0 0 0 1.096-1.45c-.666-2.318-1.8-6.74-1.166-8.128.868-1.912 2.846.696 3.782-6.674s3.092-9.6 7.946-7.8 13.212 4.856 16.438 4.566 5.702-7.492 6.678-11.112-1.056-3.082-2.87-1.134c0 0 .492-7.752-2.646-8.922s-4.774 4.414-4.774 4.414 1.2-5.468-2.096-4.948-4.634 4.37-6.468 4.468-13.124-2.732-20.622 5.278S111.81 90.672 115.95 100M136.666 130.378l6.078 11.06 3.45-7.456z"/><path fill="none" stroke="#0D319D" stroke-linecap="round" stroke-linejoin="round" stroke-width="1.276" d="M146.2 133.982 140.358 148s4.044 5.972 4.496 9.978M126.55 108.556h2.732M127.252 111.002h1.542"/><path fill="#0D319D" d="M120.472 119.72s-16.326-3.13-24.306 1.214a104.6 104.6 0 0 0-16.712 12.292s3.558 2.2 13.718-5.088 25.028 2.24 25.028 2.24l1.724-7.178Z"/><path fill="none" stroke="#0D319D" stroke-linecap="round" stroke-linejoin="round" stroke-width="1.276" d="M81.2 132.512s-7.076 5.6-7.07 8.734 1.632 3.462 1.146 4.81-3.46 3.384-1.146 7.442c0 0 19.45-15.148 27.538-14S134.78 161 145.8 162.754c0 0-1.104-13.236-11.514-21.316s-16.572-12.152-16.572-12.152M146.236 126.174a4.23 4.23 0 0 0 2.702.716"/><path fill="none" stroke="#0D319D" stroke-linecap="round" stroke-linejoin="round" stroke-width="1.276" d="M129.684 133.024s6.442 9.44 8.52 12.154M74.138 153.498s-3 17.614-2.868 25.428-9.914 26 20.326 40.492c0 0 26.762 28.568 33.17 31.704s7.216 5.012 19.92-.66 31.27-19.618 38.746-34.484c0 0 4.952-1.4 6.076-2.842s.724-6.558 1.67-7.738 3.634 2.026 3.312-6.4l2.944-2.962-8.05-20.74a19.2 19.2 0 0 1-5.266 3.866c-3.498 1.83-16.222 5.164-16.038 10.162 0 0-9.356 1.622-15 7.744s-7.48 3.05-9.586 6.038a144 144 0 0 0-6.898 13.462"/><path fill="none" stroke="#0D319D" stroke-linecap="round" stroke-linejoin="round" stroke-width="1.276" d="M114.578 163.896a26.3 26.3 0 0 1 5.336 7.648c1.626 5.588 3.908 22.856 3.908 22.856l8.304 1.25-13 15.504M132.126 195.65s-1.054 22.774-3.708 31.762c0 0 5.332-13.66 9.304-19.496"/><path fill="none" stroke="#0D319D" stroke-linecap="round" stroke-linejoin="round" stroke-width="1.276" d="M131.656 203.29a23.4 23.4 0 0 1 5.444-2.8c.976.096 3.968 6.844 3.968 6.844M145.8 162.754a27.67 27.67 0 0 0 7.302-18.336 56.4 56.4 0 0 0-2.274-10.436M81.722 140.75S99.386 130.026 106.8 131 93 141.43 93 141.43M122.684 186.424s2.052-10.27 3.628-9.874-.428 13.086-.428 13.086M134.578 253.704s16.094-11.256 18.528-16.566M194.49 199s-6.948-10.084-7.212-7.708 1.948 7.708 1.948 7.708M151.788 137.226a12.62 12.62 0 0 0 7.274 5.422c4.646 1 18.044.922 15.712 26.432l.27 13.828M73.268 204.8s.218 35.744-2.618 52.514-10.186 42 2.9 44.6 34.236 1.558 38.7.938M173.102 230.944s.716 33.454 6.086 51-.364 17.544-14.682 17.902M181.174 220.756s8.488 39.562 10.544 44 4.31 16.55 1.314 23.028c0 0 8.416 6.71 1.51 21.618a85 85 0 0 1 1.316 11.6"/><path fill="#0D319D" d="M136.098 173.536a2.304 2.304 0 0 1-1.936-3.06 30.7 30.7 0 0 0 1.694-6.732 24.9 24.9 0 0 0-.418-8.358 1.174 1.174 0 0 1 .958-1.474 1.17 1.17 0 0 1 1.134.462 16.6 16.6 0 0 1 2.586 9.844 18.1 18.1 0 0 1-1.712 8.036 2.31 2.31 0 0 1-2.306 1.282"/><path fill="none" stroke="#0D319D" stroke-linecap="round" stroke-linejoin="round" stroke-width="1.276" d="m135.856 172.264-1.614 4.718"/><path fill="#0D319D" d="M151.69 170.98a2.302 2.302 0 0 1-2.506-2.612 30.7 30.7 0 0 0 .32-6.934 24.9 24.9 0 0 0-2.074-8.108 1.176 1.176 0 0 1 .644-1.636 1.18 1.18 0 0 1 1.2.228 16.6 16.6 0 0 1 4.492 9.132 18.1 18.1 0 0 1-.078 8.216 2.31 2.31 0 0 1-2 1.714Z"/><path fill="none" stroke="#0D319D" stroke-linecap="round" stroke-linejoin="round" stroke-width="1.276" d="m151.2 169.784-.644 4.944M73.55 301.91a18 18 0 0 0 2.614 9.386s84.836 3.444 101.53-3.976a48.7 48.7 0 0 0 1.316-9.8"/><path fill="#0D319D" d="m76.164 311.296-1.114 14.73s54.346 3.292 72.25.956a294 294 0 0 1 36.126-2.124l-5.732-17.538c-23.728 4.896-49.432 5.378-79.758 4.774-8.494-.168-18.176-.366-21.772-.798M102.778 303.458 74.744 308.4l-1.196-5.952 12.484.964z"/><path fill="none" stroke="#0D319D" stroke-linecap="round" stroke-linejoin="round" stroke-width="1.276" d="M108.244 250.62s8.8 9.496 9.57 20.258-4.552 15.972-4.552 15.972M165.624 251.632s-2.584 2.072-3.052 14.146c-.566 14.638 7.148 18.4 7.148 18.4"/><path fill="#0D319D" d="M73.272 226.104a42.4 42.4 0 0 0 6.752 3.2c3.146 1.06 24.414 4.364 28.954 7.664L92.512 220.4s-16.468-11.574-19.24-14.33Z"/><path fill="none" stroke="#0D319D" stroke-linecap="round" stroke-linejoin="round" stroke-width="1.276" d="M131.076 145.178s12.548 11.546 14.72 17.576M190.642 178.538s18.242-.72 23.624-1.262 5.508 1.726 7.504 6.686 2.86 8.02 2.684 9.77-2.368 2.97-3.908 3.178a6.1 6.1 0 0 1-5.51 1.102s-7.6-1.072-8.932-2.362-.696-3.96.58-4.2 3.816.962 3.886 2.552"/><path fill="none" stroke="#0D319D" stroke-linecap="round" stroke-linejoin="round" stroke-width="1.276" d="M212.52 181.432a4.48 4.48 0 0 1 4.184 3.068c.754 3 .616 11.932-1.668 13.512M220.062 197.266s2.084-.498 1.09-5.2c-1.106-5.246-1-9.87-4.038-11.676M212.776 191.8s-3.56 1.164-4.892-.858M209.478 188.488a12.9 12.9 0 0 1-4.278 3.312c-1.958.6-6.628 1.472-7.762 0"/><path fill="none" stroke="#0D319D" stroke-linecap="round" stroke-linejoin="round" stroke-width="1.276" d="M197.2 195.072s5.622 3.628 8.38 3.928 3.478-1.212 6.628.978 6.852 2.11 8.704 0c.508-.58 1.088-2.322-.374-3.068M223.82 195.1a4.9 4.9 0 0 0 1.988 1.096 5.2 5.2 0 0 0 4.55 1.466s6.53-.166 7.784-1.128.972-3.28-.084-3.6-3.32.444-3.534 1.782M250.708 186.092s-13.184-4.906-17.682-5.886-4.824.922-7 4.924c-.918 1.69-1.63 3.112-2.15 4.304"/><path fill="none" stroke="#0D319D" stroke-linecap="round" stroke-linejoin="round" stroke-width="1.276" d="M234.098 183.888a3.81 3.81 0 0 0-3.834 2.188c-.93 2.458-1.682 10.03.094 11.586M226.182 196.542s-1.712-.622-.416-4.508c1.446-4.328 1.8-8.248 4.55-9.48M232.874 192.634s2.896 1.328 4.22-.25M235.984 190.15a10.9 10.9 0 0 0 3.298 3.22c1.6.708 5.462 1.888 6.564.754"/><path fill="none" stroke="#0D319D" stroke-linecap="round" stroke-linejoin="round" stroke-width="1.276" d="M225.8 196.2c-1.31.488-.988 2.016-.614 2.558 1.36 1.964 4.482 2.4 7.358.846s5.252.44 7.614.454a15.6 15.6 0 0 0 5.982-2.158M114.578 94.394H27.952v136.55h44.776M212.776 200.616v30.328h-28.834M164.41 94.394h48.366v82.804"/><path fill="none" stroke="#0D319D" stroke-linecap="round" stroke-linejoin="round" stroke-width="1.276" d="M30.908 94.4a103 103 0 0 1 1.892 27.472h63.366M207.116 94.4s.698 14.176 1.938 27.478h-49.342"/><path fill="none" stroke="#0D319D" stroke-linecap="round" stroke-linejoin="round" stroke-width="1.276" d="M42.948 121.872s-1.858 27.964-1.356 35.756 2.19 20.066 1.93 28.682a79.6 79.6 0 0 0 .982 15.29M41.506 204.916a2.792 2.792 0 1 0 5.584 0 2.792 2.792 0 1 0-5.584 0M36.22 99.174s49.252 1.2 52.914 1.27 21.82 0 21.82 0M32.786 107.872a181 181 0 0 1 19.75-1.336c5.788.3 37.524.736 43.63.65M41.506 115.478s56.956.174 62.912.174M166.918 103.922s32.618.47 37.1.108M208.502 115.478s-33.888.614-37.168 0M206.048 80.454s49.782.616 64.502 0 22.16-.638 22.16-.638M226.824 71.4s58.464.4 65.886.442 15.724.2 15.724.2M32.786 243.012h31.69M190.284 243.012h50.82M11.144 291.986h21.642M43.026 291.986H58.29M21.964 279.27H48.63M352.286 291.986h13.352M375.88 291.986h15.264M347.804 279.27h33.68M194.4 278.362s8.764-10.4 21.428-10.4c11.318 0 21.428 7.366 21.428 7.366"/><path fill="none" stroke="#0D319D" stroke-linecap="round" stroke-linejoin="round" stroke-width="1.276" d="M193.766 269.436a36.36 36.36 0 0 1 22.066-8.48c15.564 0 23.978 8 23.978 8M386.43 252.706c-1.782-.2-12.468.2-18.168 0s-19.6 0-19.6 0l-4.63-22.8s9.274-.664 14.578-.8a213 213 0 0 1 24.304 1l-5.456 22.2M363.958 228.8s7.188-29.8 6.172-49.87c-.494-9.738-1.488-22.936 1.93-22.938 5.706 0 5.922 14.702 5.694 26.714-.366 19.218-9.444 46.376-9.444 46.376M370.862 229.072s9.06-19.352 10.568-30.756c2.082-15.748 9.714-14.712 5.464 3.264-4.262 18.03-11.652 27.492-11.652 27.492"/><path fill="none" stroke="#0D319D" stroke-linecap="round" stroke-linejoin="round" stroke-width="1.276" d="M357.978 229.098s-2.8-22.494-3.894-35.822.566-19.456.116-31.464c-.414-10.986 6.028-11.306 6.8 5.81s1.092 18.556 1.426 26.974-.666 34.502-.666 34.502M349.48 229.47c-1.888-7.554-4.85-19.636-6.628-28.048-2.766-13.082-1.898-19.372-3.864-31.228-1.8-10.846 4.55-11.976 7.47 4.906s3.43 18.268 4.826 26.576c.938 5.6 2.294 19.238 3.078 27.534M261.4 255.374a37 37 0 0 0-1.074 9.438s-12.4 17.4-13.322 38.11 1.074 23.352 1.074 23.352"/><path fill="none" stroke="#0D319D" stroke-linecap="round" stroke-linejoin="round" stroke-width="1.276" d="M264.832 265.932s-6.354 10.782-9.472 14.644M284.05 256.466a37 37 0 0 1-.922 8.73 116.3 116.3 0 0 0-1.238 21.712M274.23 307.44s16.322 9.252 18.522 10.526l2.554 8.308"/><path fill="none" stroke="#0D319D" stroke-linecap="round" stroke-linejoin="round" stroke-width="1.276" d="M281.28 315.652a91 91 0 0 0 11.472 2.314M328.236 255.172a41.3 41.3 0 0 1 0 7.2s13.076 12.354 19.568 27.426 13.146 34.576 13.146 34.576M312.178 267.988s13.232 12.334 20.122 16.782M289.236 264.718a1.758 4.718 0 1 0 3.516 0 1.758 4.718 0 1 0-3.516 0M247.282 226.082s-2.92 28.712-3.358 34.874-6.664 6.728-8.554 28.372a127.9 127.9 0 0 0 2.118 36.512M47.614 250.38l-27.656 12.444M49.066 253.608l-27.654 12.444M50.91 248.896l.362-.162a1.77 1.77 0 0 1 2.34.888h0a1.77 1.77 0 0 1-.888 2.34l-.812.366M17.364 263.992l-3.678 3.596 5.13-.368M40.34 259.114a124 124 0 0 1-9.766 12.076c-2.764 2.414 25.558 1.2 25.558 1.2L68.5 253.696l-13.716-.4"/><path fill="none" stroke="#0D319D" stroke-linecap="round" stroke-linejoin="round" stroke-width="1.276" d="m36.4 267.588 3.6-1.216a1.91 1.91 0 0 1 1.75.276h0a1.91 1.91 0 0 0 2.442-.14l.232-.216a1.914 1.914 0 0 1 2.354-.2l1 .656a1.91 1.91 0 0 0 2.388-.234l.088-.086a1.914 1.914 0 0 1 2.498-.158l1.84 1.4M43.096 261.744l2.974-1.4a1.27 1.27 0 0 1 1.532.356h0a1.27 1.27 0 0 0 1.826.166l1.6-1.4a1.272 1.272 0 0 1 1.898.262l1.346 2.056a1.27 1.27 0 0 0 1.722.39l2.494-1.514M295.254 214.28a50 50 0 0 1 4.184 5.494M278.262 171.086s9.696-1.114 11.568-1.786M288.638 162.944l2.05 8.458M324.978 125.276a15.9 15.9 0 0 1-.8 5.028c-.854 2.36-7.022 7.088-9.142 7.296-1.062.102-1.988 2.148-3.022 4.2a8.17 8.17 0 0 1-4.31 4.292c-6.888 1.44-5.37 4.2-2.174 3.678s7.164-2.8 9.8-9.142c0 0 5.678-2.784 6.884 1.022s-1.814 13.478-11.436 12.29l1.95 16.064 6.57 2.462"/><path fill="none" stroke="#0D319D" stroke-linecap="round" stroke-linejoin="round" stroke-width="1.276" d="M324.182 130.304a11.4 11.4 0 0 1-.072 5.318 8.46 8.46 0 0 1-3.98 4.124M324.11 135.622s1.668 1.918-1.894 6.036M311.2 142.182c-3.172-1.894-2.638-7.038-2.188-9.342s2.34-6.18-2.466-7.438-3.8-7.4-6.126-9.228-5.74 1.28-10.2.634-3.82-4.358-6.668-2.726a15 15 0 0 1-4.812 1.91s8.034-16.77 27.478-9.06"/><path fill="none" stroke="#0D319D" stroke-linecap="round" stroke-linejoin="round" stroke-width="1.276" d="M287 111.078c5.12-5.466 12.37-5.62 20.568-3.872"/><path fill="none" stroke="#0D319D" stroke-linecap="round" stroke-linejoin="round" stroke-width="1.276" d="M293.322 112.87s12.148-7.366 15.956-5.294a13 13 0 0 1 2.228 2.12s2.142-1.088 3.096.2M317.366 111.476s-4.062-1.034-4.04 2.22a3.73 3.73 0 0 0 3.016 3.4 2.4 2.4 0 0 0-1.77 3.368c1.102 2.672 5.706.962 5.706.962s2.042 5.282 9.118 3.892a4.524 4.524 0 1 0-1.272-8.932"/><path fill="none" stroke="#0D319D" stroke-linecap="round" stroke-linejoin="round" stroke-width="1.276" d="M315.62 111.338a6.164 6.164 0 0 1 5.49-7.762c4.962-.916 9.09 2.14 7.816 7.042"/><path fill="none" stroke="#0D319D" stroke-linecap="round" stroke-linejoin="round" stroke-width="1.276" d="M329.142 108.426s4.8.1 5.126 4.444-1.708 4.956-1.708 4.956M300.412 116.174a10.76 10.76 0 0 1 6.032-4.836M308.982 138.98s2.22-4.6 5.358-4.84 5.412-4.442 7.18-6.552M313.326 114.952s-5.34 2.028-6.882 4.278M309.6 130.304a22.5 22.5 0 0 0 5.834-4.324c2.448-2.662 3.304-2.436 3.304-2.436M314.758 142.6s3.642-.654 3.968 1.756a6.23 6.23 0 0 1-3.76 5.6M278.724 116s-5.772 6.87-5.264 13.696c0 0 .62 4.828.728 6.186s-2.812 5.4-1.91 9.862a55.6 55.6 0 0 0 4.176 10.948c2.27 5.518 3.684 7.04 9.656 6.4a29.5 29.5 0 0 0 9.268-2.296"/><path fill="#0D319D" d="M279.326 114.922s-2.962.938-3.748-1.428a4.4 4.4 0 0 1 .818-4.13s-2.87-1.042-1.034-5.048 6.082-1.442 6.082-1.442.332-3.684 3.4-4.146 5 3.344 5 3.344 3.034-3.98 5.52-1.2 1.578 4.034 1.578 4.034a32.4 32.4 0 0 0-12.466 3.522 14.87 14.87 0 0 0-5.15 6.494M310.758 150.584a1.71 1.71 0 1 0 3.42 0 1.71 1.71 0 1 0-3.42 0"/><path fill="none" stroke="#0D319D" stroke-linecap="round" stroke-linejoin="round" stroke-width="1.276" d="M313.584 153.98a14.7 14.7 0 0 0 3.172 1.444 18 18 0 0 1 1.846.6 1.076 1.076 0 0 1 .672 1.2h0a1.076 1.076 0 0 1-1.248.866 19.65 19.65 0 0 1-7.246-4.148"/><path fill="#0D319D" d="M313.524 156.03a7.33 7.33 0 0 0 2.6 4.728c.744.572 1.336.988 1.8 1.286a1.68 1.68 0 0 1 .568 2.22 1.678 1.678 0 0 1-2.492.536c-.4-.3-.818-.642-1.232-1a14.37 14.37 0 0 1-3.566-6.448v-2.778Z"/><path fill="none" stroke="#0D319D" stroke-linecap="round" stroke-linejoin="round" stroke-width="1.276" d="M273.46 129.688s1.328-1.962 2.862-1.64a11.2 11.2 0 0 1 3.692 2.256M288.1 130.652a13.86 13.86 0 0 1 6.452-2.374 7.39 7.39 0 0 1 4.964 3.182M275.35 133.374a8.68 8.68 0 0 1 6.048 2.672"/><path fill="#0D319D" d="M277.922 135.448c-.142 1.304-.892 2.29-1.676 2.2s-1.302-1.2-1.158-2.512.892-1.652 1.674-1.566 1.302.576 1.16 1.878"/><path fill="none" stroke="#0D319D" stroke-linecap="round" stroke-linejoin="round" stroke-width="1.276" d="M290.644 134.104s5.19.714 7.506 3.4"/><path fill="#0D319D" d="M293.216 136.178c-.142 1.302-.892 2.288-1.674 2.2s-1.302-1.21-1.16-2.512.892-1.652 1.674-1.566 1.302.574 1.16 1.878"/><path fill="none" stroke="#0D319D" stroke-linecap="round" stroke-linejoin="round" stroke-width="1.276" d="M283.668 131.85s.97 2.128.53 3.036-3.494 5.344-4.184 6.772 2.15 3.78 2.15 3.78M284.378 143.952a7.3 7.3 0 0 1 2.6.966M278.104 148.874a49 49 0 0 0 6.274 1.08 64 64 0 0 0 8.322-1.034s-4.076 4.66-8.322 4.742-6.274-4.788-6.274-4.788M280.534 154.692a3.87 3.87 0 0 0 2.932 2.03 8.8 8.8 0 0 0 4.106-1.2"/><path fill="#0D319D" d="M278.104 148.846a15.9 15.9 0 0 1 4.696-1.446c1.4.08 8.684 1.726 8.684 1.726l-7.72.548ZM290.54 167.98l2.16-5.658-4.062.622 1.192 4.918"/></svg>